# xmcd CD database file
#
# Track frame offsets:
#	150
#	3709
#	53840
#	114592
#	165498
#	217309
#	255268
#
# Disc length: 3984 seconds
#
# Revision: 1
# Processed by: cddbd v1.5.1PL2 Copyright (c) Steve Scherf et al.
# Submitted via: CDex 1.51
#
DISCID=5b0f8e07
DTITLE=Ernest Dawkins' New Horizon Ensemble - The Messenger - Live at the Original Velvet Lounge
DYEAR=2005
DGENRE=Jazz
TTITLE0=Intro
TTITLE1=Mean Ameen
TTITLE2=The Messenger
TTITLE3=Goin' Downtown Blues
TTITLE4=Toucouleur
TTITLE5=The Brood
TTITLE6=Lookin' for Ninny
EXTD=YEAR: 2005
EXTT0=
EXTT1=
EXTT2=
EXTT3=
EXTT4=
EXTT5=
EXTT6=
PLAYORDER=
